<svg width="128" height="128" viewBox="0 0 128 128" xmlns="http://www.w3.org/2000/svg">
  <defs>
    <style>
      .shield { fill: #2196F3; }
      .mosaic { fill: #FFF; opacity: 0.9; }
      .text { fill: #333; font-family: Arial, sans-serif; font-size: 8px; }
    </style>
  </defs>
  
  <!-- Background circle -->
  <circle cx="64" cy="64" r="60" fill="#E3F2FD" stroke="#2196F3" stroke-width="4"/>
  
  <!-- Shield shape -->
  <path class="shield" d="M64 20 L90 35 L90 75 Q90 85 80 90 L64 95 L48 90 Q38 85 38 75 L38 35 Z"/>
  
  <!-- Mosaic pattern inside shield -->
  <rect class="mosaic" x="45" y="40" width="6" height="6"/>
  <rect class="mosaic" x="53" y="40" width="6" height="6"/>
  <rect class="mosaic" x="61" y="40" width="6" height="6"/>
  <rect class="mosaic" x="69" y="40" width="6" height="6"/>
  <rect class="mosaic" x="77" y="40" width="6" height="6"/>
  
  <rect class="mosaic" x="45" y="48" width="6" height="6"/>
  <rect class="mosaic" x="53" y="48" width="6" height="6"/>
  <rect class="mosaic" x="61" y="48" width="6" height="6"/>
  <rect class="mosaic" x="69" y="48" width="6" height="6"/>
  <rect class="mosaic" x="77" y="48" width="6" height="6"/>
  
  <rect class="mosaic" x="45" y="56" width="6" height="6"/>
  <rect class="mosaic" x="53" y="56" width="6" height="6"/>
  <rect class="mosaic" x="61" y="56" width="6" height="6"/>
  <rect class="mosaic" x="69" y="56" width="6" height="6"/>
  <rect class="mosaic" x="77" y="56" width="6" height="6"/>
  
  <rect class="mosaic" x="49" y="64" width="6" height="6"/>
  <rect class="mosaic" x="57" y="64" width="6" height="6"/>
  <rect class="mosaic" x="65" y="64" width="6" height="6"/>
  <rect class="mosaic" x="73" y="64" width="6" height="6"/>
  
  <rect class="mosaic" x="53" y="72" width="6" height="6"/>
  <rect class="mosaic" x="61" y="72" width="6" height="6"/>
  <rect class="mosaic" x="69" y="72" width="6" height="6"/>
  
  <!-- Bottom text -->
  <text x="64" y="115" text-anchor="middle" class="text">PII MASKING</text>
</svg>